<svg xmlns="http://www.w3.org/2000/svg" height="24" viewBox="0 -960 960 960" width="24" fill="#1C4532"><path d="M480-825q68 83 103 189t35 216q63 19 107.5 65.5T770-244q0 75-52.5 127.5T590-64H370q-75 0-127.5-52.5T190-244q0-61 44.5-107.5T342-420q0-110 35-216t103-189ZM370-136h220q45 0 76.5-31.5T698-244q0-45-31.5-76.5T590-352q-32-6-58.5-23.5T486-419q-12 55-26 108t-35 103q-14-38-34-68.5T346-332q-11 5-28.5 22.5T284-282q-20 8-31 24t-11 34q0 45 31.5 76.5T350-116h20Zm110-618q-27 41-49.5 95T403-524q33-9 58-29.5t40-49.5q14 28 39.5 48.5T598-525q-12-57-34.5-111T514-733q-6-7-17-14.5t-17-7.5q-6 0-17 7.5T446-733Zm-76 490Z"/></svg>